<?xml version="1.0" standalone="no"?>
<!DOCTYPE svg PUBLIC "-//W3C//DTD SVG 20010904//EN"
 "http://www.w3.org/TR/2001/REC-SVG-20010904/DTD/svg10.dtd">
<svg version="1.0" xmlns="http://www.w3.org/2000/svg"
 width="1197.000000pt" height="1197.000000pt" viewBox="0 0 1197.000000 1197.000000"
 preserveAspectRatio="xMidYMid meet">
<metadata>
Created by potrace 1.14, written by Peter Selinger 2001-2017
</metadata>
<g transform="translate(0.000000,1197.000000) scale(0.100000,-0.100000)"
fill="#000000" stroke="none">
<path d="M8260 9689 c-78 -7 -193 -31 -245 -51 -57 -22 -155 -97 -181 -139 -5
-8 -21 -22 -35 -31 -30 -19 -44 -43 -139 -233 -78 -158 -270 -610 -333 -786
l-42 -116 -100 5 c-269 11 -652 -143 -858 -345 -69 -68 -133 -158 -158 -222
l-17 -46 -306 -1 c-445 -2 -589 -11 -851 -55 -298 -50 -449 -89 -542 -138
l-51 -28 -64 34 c-106 58 -169 89 -273 133 -55 23 -130 58 -167 76 -37 19
-103 48 -145 65 -43 16 -91 36 -108 44 -238 108 -709 176 -945 136 -144 -24
-264 -114 -325 -244 -130 -272 -133 -674 -10 -1282 19 -93 46 -208 60 -255 14
-47 32 -119 40 -160 21 -101 24 -110 41 -110 26 0 15 -37 -16 -50 -44 -18
-346 -514 -463 -763 -26 -54 -47 -101 -47 -104 0 -3 -7 -19 -15 -36 -24 -54
-72 -182 -99 -269 -60 -193 -90 -509 -66 -683 35 -255 162 -506 370 -738 89
-99 309 -256 478 -341 322 -162 870 -306 1302 -341 41 -3 96 -8 121 -10 241
-19 395 -22 834 -12 83 2 209 -1 280 -6 72 -5 193 -10 270 -11 148 -1 626 13
635 19 7 4 277 15 495 20 284 7 1187 6 1215 0 44 -11 563 -14 620 -5 30 5 60
17 67 26 10 14 28 15 130 10 65 -3 189 -9 277 -12 190 -7 185 -7 196 -25 7
-10 28 -14 82 -12 79 2 194 37 324 98 93 45 327 219 435 325 139 136 270 358
313 528 43 171 37 471 -14 687 -32 136 -159 481 -257 695 -82 180 -187 543
-197 680 -6 77 -18 126 -61 255 -76 228 -76 208 -7 233 114 42 218 124 295
233 82 116 118 228 119 373 0 146 -52 323 -133 444 -30 45 -146 161 -161 162
-5 0 -8 6 -9 13 0 6 -10 28 -23 47 l-23 34 62 96 c35 52 107 174 160 270 54
96 150 265 213 375 160 277 191 346 204 453 18 142 15 171 -27 251 -59 112
-185 230 -402 377 -110 75 -219 128 -448 219 -316 125 -594 211 -781 241 -20
3 -38 -1 -55 -14 -23 -18 -26 -18 -118 -1 -108 21 -214 27 -321 18z m-383
-4941 c-3 -8 -6 -5 -6 6 -1 11 2 17 5 13 3 -3 4 -12 1 -19z"/>
</g>
</svg>
